# xmcd
#
# Track frame offsets: 
#        150
#        15742
#        29580
#        40068
#        56117
#        72730
#        88663
#        100841
#        115263
#        125999
#
# Disc length: 1854 seconds
#
# Revision: 0
# Processed by: cddbd v1.5.2PL0 Copyright (c) Steve Scherf et al.
# Submitted via: ExactAudioCopy v0.99pb4
#
DISCID=92073c0a
DTITLE=Willie Nelson - Country Hit Parade
DYEAR=1900
DGENRE=Country
TTITLE0=Mamas Don't Let Your Babies Grow Up To Be Cowboys
TTITLE1=Heartbreak Hotel (with Leon Russell)
TTITLE2=Blue Eyes Crying In The Rain
TTITLE3=Reason To Quit (with Merle Haggard)
TTITLE4=Don't You Ever Get Tired Of Hurting Me (with Ray Price)
TTITLE5=I Can't Help It If I'm Still In Love With You
TTITLE6=Ten With A Two
TTITLE7=That's The Way Love Goes
TTITLE8=Touch Me (Live)
TTITLE9=Just A Closer Walk With Thee (with Patsy Cline)
EXTD=
EXTT0=
EXTT1=
EXTT2=
EXTT3=
EXTT4=
EXTT5=
EXTT6=
EXTT7=
EXTT8=
EXTT9=
PLAYORDER=
